<svg xmlns="http://www.w3.org/2000/svg" width="32" height="33" fill="none" viewBox="0 0 32 33"><path fill="url(#a)" d="M31.33 8.521a4.02 4.02 0 0 0-2.829-2.848C26.007 5 16 5 16 5S5.993 5 3.497 5.673A4.02 4.02 0 0 0 .67 8.521C0 11.033 0 16.273 0 16.273s0 5.24.67 7.752a4.02 4.02 0 0 0 2.829 2.848c2.494.674 12.501.674 12.501.674s10.007 0 12.503-.674a4.02 4.02 0 0 0 2.829-2.848C32 21.513 32 16.273 32 16.273s0-5.24-.67-7.752m-18.603 12.51v-9.515l8.364 4.757z"/><defs><linearGradient id="a" x1="16" x2="16" y1="5" y2="27.547" gradientUnits="userSpaceOnUse"><stop stop-color="#ffbf00"/><stop offset="1" stop-color="#f2a50c"/></linearGradient></defs></svg>